<?xml version="1.0" encoding="UTF-8"?>
<svg id="Layer_2" data-name="Layer 2" xmlns="http://www.w3.org/2000/svg" viewBox="0 0 39.25 45.05">
  <g id="Layer_1-2" data-name="Layer 1">
    <g>
      <ellipse cx="17.12" cy="27.32" rx="17.12" ry="17.73" fill="#3f3838" stroke-width="0"/>
      <rect x="24.3" y="4.39" width="7.03" height="13.3" rx="3.52" ry="3.52" transform="translate(13.08 -15.01) rotate(38.87)" fill="#3f3838" stroke-width="0"/>
      <path d="M25.48,8.4s4.47.85,5.76,4.19c1.23-1.63,1.38-1.88,1.38-1.88,0,0-1.93-3.27-4.34-3.99-.44-.13-.89-.18-1.35-.1-.95,1.16-1.61,1.98-1.61,1.98" fill="#a0a0a0" stroke-width="0"/>
      <path d="M26.85,6.62s-.1-3.45,4.22-5.97c-.46,1.64-.31,2.6-.31,2.6,0,0,2.98-2.22,3.02-3.25-.31,2.25-.42,3.94-.42,3.94,0,0,3.17-.65,3.67-1.8-.61,2.79-1.76,3.9-1.76,3.9,0,0,3.32.04,3.97-.99-2.18,2.18-1.61,4.42-6.92,5.99-.07-.99-4.53-4.4-5.48-4.41Z" fill="#f90303" stroke-width="0"/>
      <path d="M27.06,6.31s.66-2.35,2.98-3.69c-.71,1.99-.57,2.31-.57,2.31,0,0,2.38-.55,2.72-1.67-.47,2.54-.53,2.96-.53,2.96,0,0,2.86-.61,3.51-1.43-.43.97-1.9,2.89-1.9,2.89,0,0,2.3,0,3.62-.44-.42.82-3.81,3.38-5.1,3.31-.58-1.33-4.94-4.01-4.94-4.01l.2-.22Z" fill="#f60" stroke-width="0"/>
      <path d="M27.13,6.53s.66-1.26,1.77-2.03c.11,1.3,1.69,1.13,2.48.73-.57,1.53-.57,1.95-.57,1.95,0,0,2.18-.11,2.98-.84-.8,1.15-1.15,2.1-1.15,2.1,0,0,1.97.29,3.25-.46-1.45,1.11-3.74,2.28-3.74,2.28,0,0-4.73-3.19-5.02-3.73Z" fill="#ffe000" stroke-width="0"/>
      <polygon points="31.63 10.26 32.15 10.26 31.02 9.59 31.63 10.26" fill="#c1c1c1" stroke-width="0"/>
      <path d="M2.64,19.83s1.64-1.26,1.64.65-1.8,5.81-1.3,9.94c-.99,1.34-1.45,1.18-1.99.19-.23-1.18.38-9.52,1.64-10.78Z" fill="#c1c1c1" stroke-width="0"/>
      <circle cx="3.06" cy="33.55" r="1.15" fill="#c1c1c1" stroke-width="0"/>
    </g>
  </g>
</svg>